<svg width="492" height="423" viewBox="0 0 492 423" fill="none" xmlns="http://www.w3.org/2000/svg">
<path d="M372.995 63.9735C479.837 158.875 496.317 239.473 491.172 267.92C468.341 395.045 368.333 418.268 338.427 419.956C298.874 422.125 235.364 419.232 193.56 420.357C79.1621 426.866 32.7758 362.661 23.9327 329.795C-30.734 195.277 45.8797 91.6967 91.0601 56.7413C207.066 -43.9462 327.413 19.6163 372.995 63.9735Z" fill="#F7BC28"/>
<path d="M188.235 150.114C193.862 137.82 200.856 126.248 207.77 114.677L265.652 18.6501C270.878 10.0519 278.917 0.167937 288.242 0.971508C289.529 1.13222 290.574 2.25722 290.413 3.62329C290.413 3.78401 290.333 3.94472 290.333 4.18579C285.67 17.8465 277.872 30.3019 267.662 40.5072C265.25 42.8376 262.437 44.4447 262.035 45.6501C261.793 46.4537 258.658 55.1322 257.533 58.7483C244.348 99.5697 231.888 132.838 225.939 147.061" fill="#FFC9A0"/>
<path d="M231.486 140.552C224.974 160.239 222.884 170.605 212.754 176.23L159.133 196.4C167.815 179.847 178.668 156.864 188.717 141.114L231.486 140.552Z" fill="#307549"/>
<path d="M179.633 151.239C196.917 150.596 214.201 150.838 231.405 152.043C232.691 152.043 233.817 150.918 233.817 149.632C233.737 148.346 232.691 147.302 231.405 147.221C214.201 146.016 196.917 145.775 179.633 146.418C176.497 146.498 176.497 151.4 179.633 151.239Z" fill="#153A23"/>
<path d="M185.26 187.4C182.768 176.391 183.089 162.088 190.727 150.034C192.415 147.382 189.762 145.614 188.315 148.347C181.723 160.802 177.944 163.132 177.784 188.847C177.784 191.98 181.08 191.82 180.999 188.686L185.26 187.4Z" fill="#153A23"/>
<path d="M195.47 181.373C199.489 170.847 203.348 159.597 208.011 149.311C208.574 148.105 208.815 147.623 207.529 146.82C206.323 146.177 204.876 146.579 204.152 147.704C197.64 159.436 196.274 175.668 190.727 180.088C189.682 180.891 191.209 182.739 192.415 183.141C193.701 183.382 195.068 182.659 195.47 181.373Z" fill="#153A23"/>
<path d="M203.75 182.418C205.358 180.088 207.931 178.641 210.021 176.873C212.352 174.945 211.227 171.972 213.236 169.722C216.774 165.864 220.07 161.284 223.044 151.4C223.929 148.347 217.899 146.98 217.337 150.114C215.648 159.355 213.96 162.168 211.066 167.632C209.78 170.123 207.931 172.293 205.76 173.98C203.429 175.829 201.178 177.436 199.489 179.927C198.846 181.132 199.248 182.579 200.374 183.302C201.58 183.945 203.107 183.543 203.75 182.418Z" fill="#153A23"/>
<path d="M162.107 231.275C136.06 231.838 89.1914 222.436 63.1443 222.275C46.7443 222.114 35.409 226.052 14.3463 213.195C12.0953 211.909 10.0855 210.302 8.47767 208.293C7.51297 207.007 8.71885 205.079 10.1659 205.641C24.7973 211.909 42.4032 201.945 57.3561 207.972C68.2894 212.391 129.468 207.248 164.68 199.454" fill="#FFC9A0"/>
<path d="M423.944 103.507C409.795 131.391 394.601 158.793 378.442 185.632C368.152 174.784 365.017 172.373 352.235 160.4L353.28 220.427L375.227 232.882C379.488 235.293 383.99 237.784 388.893 237.623C399.264 237.302 405.374 226.052 408.991 216.329C421.291 183.222 430.617 144.168 436.727 109.373L423.944 103.507Z" fill="#FFC9A0"/>
<path d="M279.56 257.873C283.338 303.195 285.107 334.936 287.68 390.784C291.94 390.543 300.14 390.945 304.24 391.989C309.225 354.543 315.737 296.204 320.56 256.989L279.56 257.873Z" fill="#FFC9A0"/>
<path d="M164.278 190.373C203.107 171.891 244.75 155.177 286.152 143.445C285.911 174.141 284.946 192.061 285.107 231.356C247.082 231.597 209.137 229.748 171.352 225.891L164.278 190.373Z" fill="#39B55D"/>
<path d="M353.28 220.427C345.964 216.248 335.674 209.257 326.59 203.873C323.454 225.891 323.615 235.132 320.56 257.07C307.939 257.07 292.182 257.793 279.56 257.873L279.319 145.454C302.552 136.052 330.207 138.302 352.315 160.4L353.28 220.427Z" fill="#153A23"/>
<path d="M170.388 223.963C184.778 224.043 192.335 223.48 206.725 224.204C217.176 224.766 229.074 224.605 256.327 226.132C266.215 226.695 278.113 226.373 288.001 226.373C291.137 226.373 291.137 218.579 288.001 218.579C271.28 218.579 254.558 221.23 237.837 220.748C223.607 220.346 209.297 219.784 195.068 219.463C186.788 219.221 178.588 219.141 170.307 219.061C167.252 219.061 167.172 223.963 170.388 223.963Z" fill="#153A23"/>
<path d="M155.274 210.382C174.407 211.025 193.46 209.739 212.593 209.097C230.762 208.534 249.976 209.579 268.064 208.614C276.023 208.213 287.037 203.873 291.056 206.445C293.709 208.132 294.191 203.632 291.056 203.552C277.791 202.909 258.98 204.195 243.384 204.918C224.25 205.802 206.082 205.641 186.868 205.802C176.337 205.882 165.805 205.882 155.274 205.561C152.139 205.4 152.139 210.302 155.274 210.382Z" fill="#153A23"/>
<path d="M152.219 195.596C170.227 195.677 182.366 200.418 200.133 197.525C217.658 194.632 236.309 193.588 261.954 193.427C272.084 193.346 280.203 190.936 290.333 190.132C291.619 190.052 292.744 189.007 292.744 187.641C292.744 186.436 291.619 184.829 290.333 185.23C285.348 186.516 264.125 190.213 236.389 188.766C218.462 187.882 193.139 192.463 175.211 192.784C165.082 192.945 162.348 190.775 152.219 190.695C149.084 190.775 149.084 195.596 152.219 195.596Z" fill="#153A23"/>
<path d="M171.835 179.364C202.625 178.239 230.762 179.445 261.552 177.677C270.315 177.195 281.65 174.382 290.413 173.739C291.78 173.739 292.825 172.614 292.825 171.248C292.825 169.882 291.699 168.838 290.413 168.838C259.703 170.927 232.37 174.784 198.042 173.418C189.28 173.097 180.517 174.061 171.754 174.382C168.699 174.623 168.619 179.525 171.835 179.364Z" fill="#153A23"/>
<path d="M220.15 160.159C241.133 160.239 262.195 159.677 283.178 158.472C289.046 158.15 294.995 157.748 300.864 157.266C302.231 157.266 303.276 156.141 303.276 154.855C303.276 153.489 302.15 152.445 300.864 152.364C279.882 153.972 258.899 154.936 237.917 155.177C231.968 155.257 226.099 155.257 220.15 155.257C216.935 155.338 216.935 160.159 220.15 160.159Z" fill="#153A23"/>
<path d="M48.3522 134.605C46.1012 135.409 44.1718 136.775 42.8052 138.704C39.6699 142.882 39.7503 151.722 45.4581 154.373C48.9954 156.061 55.5071 156.704 58.4816 154.132C60.9738 152.123 62.9032 149.472 64.0287 146.418" fill="#32142A"/>
<path d="M73.113 168.838L83.564 175.347C83.8856 175.507 84.2072 175.748 84.4483 176.07C84.6895 176.472 84.7699 176.954 84.7699 177.436L85.1719 191.177C85.2523 191.659 85.1719 192.222 84.8503 192.623C84.6091 192.864 84.2072 193.106 83.8856 193.186C79.9464 194.472 76.0072 195.677 71.9875 196.722L73.113 168.838Z" fill="#E48929"/>
<path d="M74.1581 157.588C74.6405 172.614 74.3993 187.722 73.3542 202.748C73.2738 203.793 73.113 204.998 72.3091 205.802C71.5052 206.606 70.2189 206.606 69.013 206.606C49.0758 206.686 29.1385 206.766 9.20126 206.686C8.63852 206.766 7.99538 206.606 7.51303 206.284C7.19146 205.882 6.95028 205.4 6.95028 204.838C4.61891 189.489 4.37773 173.82 6.22675 158.391L74.1581 157.588Z" fill="#32142A"/>
<path d="M89.0307 170.123C89.1111 178.963 89.0307 187.802 88.9503 196.561C88.9503 197.123 88.9503 197.766 88.8699 198.329C88.7896 198.811 88.7092 198.811 88.5484 198.811C86.6994 198.891 84.7699 198.891 82.9209 198.891C82.8405 198.891 82.8405 198.891 82.7601 198.65C82.7601 198.409 82.6798 198.088 82.6798 197.847C82.4386 188.847 82.4386 179.123 82.5994 170.043L89.0307 170.123Z" fill="#32142A"/>
<path d="M47.3875 153.168C50.8444 153.489 54.3816 153.891 57.5169 152.605C60.6522 151.32 63.4659 148.748 64.1895 145.454C65.0738 141.677 63.1444 137.579 59.8483 135.409C56.3914 133.32 52.211 132.918 48.4326 134.364C47.3875 134.686 46.4228 135.248 45.6189 135.891C43.9306 137.338 43.2071 139.588 42.8051 141.757C42.3228 143.847 42.4032 146.016 42.8855 148.105C43.5287 150.275 45.0561 151.963 47.1463 152.766" fill="#E48929"/>
<path d="M47.8699 159.516C50.6836 154.855 53.0954 149.954 55.1856 144.891L51.7287 144.811C51.3268 144.811 51.0052 144.811 50.6836 144.972C50.4425 145.132 50.2013 145.373 50.0405 145.614C46.8248 150.195 45.1366 155.579 42.0817 160.239" fill="#32142A"/>
<path d="M17.0797 125.927C14.0248 127.052 11.3719 129.141 9.52288 131.793C5.34249 137.739 5.74445 149.954 13.7837 153.489C18.768 155.659 27.7719 156.302 31.8719 152.686C35.3288 149.793 37.9013 146.016 39.268 141.757" fill="#32142A"/>
<path d="M9.60318 145.614C8.23652 142.882 8.71887 139.668 9.20122 136.695C9.68358 133.722 10.6483 130.507 12.9797 128.338C14.1051 127.373 15.4718 126.57 16.8385 126.007C21.9836 123.998 28.2542 124.159 32.9169 127.052C37.5797 129.945 40.4738 135.65 39.3483 140.954C38.3836 145.534 34.6051 149.231 30.1836 151.239C30.264 151.239 14.5071 155.579 9.60318 145.614Z" fill="#E48929"/>
<path d="M29.6209 132.195C29.4601 131.873 29.4601 131.472 29.5405 131.07C29.5405 130.668 29.7013 130.347 30.0228 130.105C30.1836 130.025 30.3444 129.864 30.5052 129.784C31.1483 129.543 31.8719 129.543 32.4346 129.945C32.9973 130.266 33.3189 130.989 33.2385 131.632C33.0777 132.195 32.6758 132.677 32.113 132.838C32.113 132.838 30.1836 133.4 29.6209 132.195Z" fill="#32142A"/>
<path d="M32.7562 140.15C32.6758 139.829 32.6758 139.427 32.7562 139.025C32.7562 138.623 32.917 138.302 33.2386 138.061C33.3994 137.9 33.5601 137.82 33.7209 137.739C34.3641 137.498 35.0876 137.498 35.6503 137.9C36.2131 138.222 36.5346 138.945 36.4543 139.588C36.2935 140.15 35.8915 140.632 35.3288 140.793C35.3288 140.873 33.3994 141.356 32.7562 140.15Z" fill="#32142A"/>
<path d="M20.7777 129.784C20.6169 129.463 20.6169 129.061 20.6973 128.659C20.6973 128.257 20.8581 127.936 21.1797 127.695C21.3405 127.614 21.5013 127.454 21.662 127.373C22.3052 127.132 23.0287 127.132 23.5915 127.534C24.1542 127.856 24.4758 128.579 24.3954 129.222C24.2346 129.784 23.8326 130.266 23.2699 130.427C23.2699 130.427 21.3405 130.989 20.7777 129.784Z" fill="#32142A"/>
<path d="M12.4973 134.043C12.3365 133.722 12.3365 133.32 12.4169 132.918C12.4169 132.516 12.5777 132.195 12.8993 131.954C13.0601 131.873 13.2209 131.713 13.3816 131.632C14.0248 131.391 14.7483 131.391 15.3111 131.793C15.8738 132.114 16.1954 132.838 16.115 133.481C15.9542 134.043 15.5522 134.525 14.9895 134.686C15.0699 134.686 13.1405 135.248 12.4973 134.043Z" fill="#32142A"/>
<path d="M11.2111 142.802C11.0503 142.48 11.0503 142.079 11.1307 141.677C11.1307 141.275 11.2915 140.954 11.613 140.713C11.7738 140.632 11.9346 140.472 12.0954 140.391C12.7385 140.15 13.4621 140.15 14.0248 140.552C14.5875 140.873 14.9091 141.597 14.8287 142.239C14.6679 142.802 14.266 143.284 13.7032 143.445C13.7836 143.445 11.8542 144.007 11.2111 142.802Z" fill="#32142A"/>
<path d="M18.2052 148.748C18.0444 148.427 18.0444 148.025 18.1248 147.623C18.1248 147.222 18.2856 146.9 18.6072 146.659C18.768 146.579 18.9287 146.418 19.0895 146.338C19.7327 146.097 20.4562 146.097 21.0189 146.498C21.5817 146.82 21.9033 147.543 21.8229 148.186C21.6621 148.748 21.2601 149.23 20.6974 149.391C20.6974 149.472 18.768 149.954 18.2052 148.748Z" fill="#32142A"/>
<path d="M27.6914 146.9C27.5306 146.579 27.5306 146.177 27.611 145.775C27.611 145.373 27.7718 145.052 28.0934 144.811C28.2542 144.731 28.415 144.57 28.5757 144.489C29.2189 144.248 29.9424 144.248 30.5052 144.65C31.0679 144.972 31.3895 145.695 31.3091 146.338C31.1483 146.9 30.7463 147.382 30.1836 147.543C30.264 147.623 28.3346 148.106 27.6914 146.9Z" fill="#32142A"/>
<path d="M57.7582 139.266C57.6778 139.025 57.6778 138.784 57.7582 138.543C57.7582 138.141 57.9993 137.82 58.4013 137.659C58.8837 137.498 59.366 137.579 59.768 137.82C60.1699 138.061 60.3307 138.543 60.2503 139.025C60.0895 139.427 59.8484 139.668 59.4464 139.829C59.4464 139.748 58.0797 140.07 57.7582 139.266Z" fill="#32142A"/>
<path d="M59.7679 144.811C59.6875 144.57 59.6875 144.329 59.7679 144.088C59.7679 143.847 59.9287 143.605 60.0895 143.364C60.1699 143.284 60.3307 143.204 60.4111 143.204C60.8934 143.043 61.3758 143.043 61.7777 143.284C62.1797 143.525 62.4209 144.007 62.2601 144.489C62.0993 144.891 61.8581 145.132 61.4562 145.293C61.5366 145.293 60.1699 145.695 59.7679 144.811Z" fill="#32142A"/>
<path d="M51.568 137.338C51.4876 137.096 51.4876 136.855 51.568 136.614C51.568 136.373 51.7288 136.132 51.8896 135.891C51.9699 135.811 52.1307 135.73 52.2111 135.73C52.6935 135.57 53.1758 135.57 53.5778 135.811C53.9798 136.052 54.1405 136.534 54.0601 137.016C53.8994 137.418 53.6582 137.659 53.2562 137.82C53.3366 137.9 51.9699 138.221 51.568 137.338Z" fill="#32142A"/>
<path d="M45.7797 140.231C45.6993 139.989 45.6993 139.748 45.7797 139.507C45.7797 139.266 45.9404 139.025 46.1012 138.784C46.1816 138.704 46.3424 138.623 46.4228 138.623C46.9051 138.463 47.3875 138.463 47.7895 138.704C48.1914 138.945 48.3522 139.427 48.2718 139.909C48.111 140.311 47.8698 140.552 47.4679 140.713C47.5483 140.713 46.1816 141.034 45.7797 140.231Z" fill="#32142A"/>
<path d="M44.7346 146.257C44.5738 145.775 44.7346 145.213 45.0562 144.811C45.1365 144.73 45.2973 144.65 45.3777 144.65C45.8601 144.489 46.3424 144.489 46.7444 144.73C47.1464 144.972 47.3875 145.454 47.2267 145.936C47.1464 146.338 46.8248 146.659 46.4228 146.82C46.5032 146.82 45.1365 147.141 44.7346 146.257Z" fill="#32142A"/>
<path d="M49.4778 150.516C49.3974 150.275 49.3974 150.034 49.4778 149.793C49.4778 149.552 49.6386 149.311 49.7993 149.07C49.8797 148.989 50.0405 148.909 50.1209 148.909C50.6033 148.748 51.0856 148.829 51.4876 148.989C51.8895 149.23 52.0503 149.713 51.9699 150.195C51.8091 150.597 51.568 150.838 51.166 150.998C51.2464 150.998 49.8797 151.4 49.4778 150.516Z" fill="#32142A"/>
<path d="M56.1503 149.391C56.0699 149.15 56.0699 148.909 56.1503 148.668C56.1503 148.427 56.311 148.186 56.4718 147.945C56.5522 147.864 56.713 147.784 56.7934 147.784C57.2758 147.623 57.7581 147.623 58.1601 147.864C58.562 148.105 58.7228 148.588 58.6424 149.07C58.4816 149.472 58.2405 149.713 57.8385 149.873C57.8385 149.954 56.5522 150.275 56.1503 149.391Z" fill="#32142A"/>
<path d="M37.9012 159.516L24.8777 138.382C24.7169 137.98 24.3954 137.659 23.9934 137.498C23.5914 137.338 23.1091 137.338 22.7071 137.498L19.6522 138.061C24.4758 145.213 28.7365 152.766 32.1934 160.641" fill="#32142A"/>
<path d="M212.674 229.266C215.729 224.445 217.256 218.739 217.015 213.034C217.015 213.034 214.282 222.034 197.801 228.463L212.674 229.266Z" fill="#307549"/>
<path d="M326.59 203.873L303.115 189.329L324.499 220.507L326.59 203.873Z" fill="#122D1C"/>
<path d="M133.166 139.668C134.211 159.356 128.423 178.802 128.182 198.489C128.101 199.534 128.262 200.659 128.584 201.623C129.468 203.713 132.04 204.597 134.372 204.918C141.366 205.882 148.44 203.793 155.113 201.302C158.168 200.177 161.384 198.811 163.313 196.239C165.242 193.668 165.644 190.052 165.886 186.757C167.091 170.766 168.378 144.088 167.654 128.016L133.166 139.668Z" fill="#FFC9A0"/>
<path d="M172.558 165.945C180.517 151.079 187.993 134.284 184.295 120.623C183.652 117.731 182.205 115.159 180.035 113.07C174.889 108.409 166.85 109.695 160.017 111.061C151.013 112.909 140.24 113.954 134.05 107.204C132.684 105.757 131.639 103.989 130.111 102.864C128.584 101.739 126.091 101.257 124.644 102.623C123.68 103.507 123.438 104.954 123.358 106.239C122.233 116.766 123.68 127.856 129.468 136.695C135.256 145.534 145.868 151.641 156.319 150.114C157.444 149.954 158.731 149.793 159.454 150.597C159.776 150.998 159.937 151.4 160.097 151.882L164.358 165.945H172.558Z" fill="#32142A"/>
<path d="M162.348 160.48C166.207 157.668 171.674 158.472 174.568 162.409C176.658 165.222 176.819 168.998 175.05 171.972C172.478 176.311 166.689 177.597 161.625 177.516L162.348 160.48Z" fill="#FFC9A0"/>
<path d="M179.231 152.284C159.133 152.927 133.246 138.945 133.246 138.945C133.327 141.918 133.166 146.498 133.166 149.391C146.752 150.998 163.152 158.391 176.819 157.588C176.819 157.588 178.105 155.097 179.231 152.284Z" fill="#39B55D"/>
<path d="M128.182 134.123C130.593 139.909 135.739 144.329 141.527 146.82C147.315 149.311 153.666 150.114 160.017 150.355C161.464 150.436 162.911 150.355 164.358 150.195C166.288 149.713 168.217 148.989 169.986 148.025L128.182 134.123Z" fill="#32142A"/>
<path d="M353.28 220.427L356.737 222.436L353.28 161.445L352.235 160.4L353.28 220.427Z" fill="#EFB086"/>
<path d="M279.56 257.873L279.801 260.606L320.158 260.043L320.48 257.07L279.56 257.873Z" fill="#EFB086"/>
<path d="M155.837 187.159C163.876 188.445 176.899 189.65 184.939 190.936C191.209 191.9 197.64 192.945 203.348 195.597C209.056 198.248 214.362 202.829 216.291 208.855C216.935 210.704 217.095 212.713 216.854 214.641C215.89 220.588 209.86 224.123 204.313 226.454C188.797 233.043 172.317 236.82 155.515 237.704L155.837 187.159Z" fill="#39B55D"/>
<path d="M167.011 237.704C166.288 220.427 166.69 203.15 168.297 185.873C168.297 184.588 167.172 183.463 165.886 183.463C164.519 183.463 163.474 184.588 163.393 185.873C161.786 203.07 161.384 220.427 162.107 237.704C162.268 240.838 167.172 240.838 167.011 237.704Z" fill="#153A23"/>
<path d="M165.966 199.454C172.397 199.052 178.909 199.052 185.341 199.454C192.254 200.016 200.937 202.748 207.609 204.677C210.584 205.4 213.397 206.605 215.97 208.052C218.703 209.659 221.115 205.48 218.462 203.793C213.076 200.579 206.564 199.052 200.454 198.007C192.978 196.722 185.501 196.079 177.944 195.918C174.166 195.838 170.388 195.838 166.609 196.079C163.474 196.239 163.474 201.141 166.609 200.98L165.966 199.454Z" fill="#153A23"/>
<path d="M165.564 215.445C202.143 213.918 217.015 213.034 221.437 214.4C222.723 214.802 223.848 213.355 223.848 211.989C223.848 210.704 222.723 209.338 221.437 209.579C202.143 212.472 184.215 211.266 165.564 210.623C162.429 210.543 162.429 215.445 165.564 215.445Z" fill="#153A23"/>
<path d="M165.484 228.864C179.793 229.507 194.586 229.829 208.654 226.695C212.272 225.891 215.809 224.766 219.266 223.239C220.391 222.516 220.793 221.07 220.15 219.864C219.427 218.739 217.98 218.338 216.774 218.981C211.066 221.552 204.635 222.677 198.444 223.4C191.29 224.204 185.341 225.972 178.105 225.891C174.327 225.811 168.539 225.489 164.76 225.329C161.705 225.248 162.348 228.704 165.484 228.864Z" fill="#153A23"/>
<path d="M130.674 203.793L155.837 196.32V201.221L130.674 203.793Z" fill="#EFB086"/>
<path d="M166.529 177.114C166.529 177.114 163.635 177.195 162.429 176.713L166.368 179.123L166.529 177.114Z" fill="#EFB086"/>
<path d="M164.037 174.382C166.046 174.623 168.056 174.141 169.744 173.097C171.191 172.213 172.076 170.686 172.317 168.998C172.558 167.391 172.397 165.704 171.674 164.177C171.031 162.811 169.825 161.927 168.378 161.606C166.69 161.284 164.841 161.525 163.313 162.329C162.911 162.57 162.75 163.132 162.991 163.534C163.233 163.936 163.715 164.097 164.117 163.856C165.886 163.052 168.86 162.731 169.986 164.739C170.548 165.864 170.79 167.15 170.629 168.356C170.629 169.561 170.066 170.686 169.182 171.489C167.654 172.534 165.805 173.016 164.037 172.775C163.554 172.775 163.152 173.177 163.152 173.659C163.152 173.981 163.554 174.302 164.037 174.382Z" fill="#32142A"/>
<path d="M164.439 170.766C165.082 170.766 165.805 170.686 166.368 170.364C167.011 170.043 167.413 169.561 167.654 168.838C167.976 168.114 167.976 167.391 167.654 166.668C167.413 166.186 166.931 165.704 166.448 165.543C165.725 165.222 165.001 165.141 164.278 165.141C163.795 165.141 163.393 165.543 163.393 166.025C163.393 166.507 163.795 166.909 164.278 166.909H164.76H165.001C165.082 166.909 165.162 166.909 165.082 166.909C165.242 166.909 165.403 166.989 165.564 166.989L165.725 167.07H165.644H165.725C165.805 167.07 165.886 167.15 165.886 167.15H165.966H165.886L166.127 167.391C166.046 167.311 166.046 167.311 166.127 167.311L166.207 167.391V167.472C166.288 167.552 166.207 167.552 166.207 167.391C166.207 167.472 166.207 167.472 166.288 167.552C166.288 167.632 166.288 167.632 166.288 167.552V167.632C166.288 167.713 166.288 167.954 166.288 167.713C166.288 167.793 166.288 167.873 166.207 167.954C166.127 168.114 166.127 168.275 166.046 168.356V168.275L165.966 168.356C165.966 168.436 165.886 168.516 165.886 168.516C165.966 168.436 165.966 168.436 165.966 168.436L165.886 168.516L165.805 168.597C165.886 168.516 165.886 168.516 165.886 168.597L165.725 168.677H165.644C165.564 168.757 165.323 168.757 165.242 168.757C165.162 168.757 164.921 168.838 165.162 168.757C165.082 168.757 165.001 168.757 164.921 168.757H164.439C163.956 168.838 163.635 169.239 163.635 169.722C163.715 170.364 164.037 170.686 164.439 170.766Z" fill="#32142A"/>
<path d="M131.96 163.213C130.754 164.097 126.976 172.936 126.333 179.364C126.252 180.489 127.056 181.534 128.262 181.614C130.192 181.775 132.041 181.775 133.97 181.614C134.211 181.614 134.452 181.534 134.693 181.454C134.935 181.132 135.095 180.811 135.015 180.409L131.96 163.213Z" fill="#E48929"/>
<path d="M262.356 44.7662L254.478 51.2752H260.105L262.356 44.7662Z" fill="#EFB086"/>
<path d="M397.737 152.364L424.909 164.82C424.909 164.82 433.029 135.248 436.807 109.373L422.899 105.677L397.737 152.364Z" fill="#39B55D"/>
<path d="M419.282 113.632C422.819 107.364 432.546 113.311 434.556 116.043C436.646 118.856 439.701 113.954 442.113 111.463C444.927 108.489 455.297 105.677 462.533 103.989C467.035 102.945 471.537 101.739 476.119 100.856C479.254 100.213 485.525 99.8912 487.133 98.043C492.358 92.177 480.54 91.293 477.325 91.2127C466.713 90.8109 456.101 91.052 445.49 90.8109C437.209 90.6502 422.98 90.4895 420.488 92.5787C415.905 96.5162 414.78 106.239 413.895 111.784C412.931 117.891 416.146 119.177 419.282 113.632Z" fill="#153A23"/>
<path d="M402.64 153.891C403.444 151.4 404.489 149.07 405.776 146.739C406.097 146.177 405.937 145.373 405.374 145.052C404.811 144.73 404.007 144.891 403.686 145.454C402.399 147.945 401.274 150.516 400.389 153.168C400.229 153.811 400.631 154.454 401.274 154.695C401.756 154.936 402.399 154.534 402.64 153.891Z" fill="#227B3D"/>
<path d="M407.544 156.463C408.188 153.811 409.313 151.239 410.84 148.989C411.162 148.427 411.001 147.623 410.358 147.302C409.795 146.981 408.991 147.141 408.67 147.784C406.982 150.195 405.776 152.927 405.133 155.82C404.972 156.463 405.374 157.106 406.017 157.347C406.66 157.507 407.384 157.106 407.544 156.463Z" fill="#227B3D"/>
<path d="M413.011 158.472C413.011 158.311 413.011 158.311 413.011 158.472C413.011 158.311 413.011 158.23 413.011 158.15C413.011 158.07 413.091 157.829 413.091 157.668C413.172 157.347 413.172 157.105 413.252 156.784C413.413 156.141 413.574 155.579 413.815 154.936C413.976 154.373 414.217 153.811 414.539 153.329C414.86 152.766 415.182 152.204 415.503 151.641C415.825 151.079 415.664 150.275 415.101 149.954C414.539 149.632 413.815 149.793 413.413 150.436C411.805 152.847 410.84 155.579 410.519 158.472C410.519 159.114 411.082 159.677 411.725 159.677C412.368 159.677 412.931 159.114 413.011 158.472Z" fill="#227B3D"/>
<path d="M417.915 161.605C418.156 159.195 418.719 156.784 419.603 154.454C419.764 153.811 419.362 153.168 418.719 152.927C418.076 152.766 417.433 153.168 417.191 153.811C416.227 156.302 415.584 158.954 415.423 161.605C415.423 162.248 415.986 162.811 416.629 162.811C417.352 162.811 417.915 162.329 417.915 161.605Z" fill="#227B3D"/>
<path d="M421.854 163.936L424.829 156.543C424.989 155.9 424.588 155.257 423.944 155.016C423.301 154.855 422.658 155.257 422.417 155.9L419.442 163.293C419.282 163.936 419.684 164.579 420.327 164.82C420.97 164.9 421.693 164.579 421.854 163.936Z" fill="#227B3D"/>
<path d="M310.591 341.043C308.341 359.846 306.893 373.105 304.642 389.257L287.68 390.864C286.715 369.65 285.831 356.311 285.268 340.641L310.591 341.043Z" fill="#39B55D"/>
<path d="M305.125 384.918C304.482 389.579 304.24 394.239 303.597 398.9C303.035 403.159 298.131 402.838 294.915 402.998C286.313 403.481 280.686 403.641 273.852 403.641C269.431 403.802 265.009 403.882 260.588 403.963C258.337 403.963 256.166 403.963 253.915 403.963C252.468 403.963 249.252 404.123 248.207 403.641C245.554 402.355 245.635 396.811 248.609 395.766C253.754 393.998 259.784 394.239 265.17 393.436C270.878 392.713 276.425 391.266 281.811 389.257C284.705 388.132 287.68 386.686 290.735 387.007C292.744 387.248 294.593 388.213 296.523 388.454C298.211 388.695 300.221 388.132 301.105 386.766C301.507 386.043 301.989 385.48 302.552 384.918C303.838 383.793 305.446 382.668 305.125 384.918Z" fill="#153A23"/>
<path d="M288.403 348.757C288.162 346.025 288.162 343.373 288.403 340.641C288.403 339.998 287.84 339.436 287.197 339.436C286.554 339.436 285.991 339.998 285.991 340.641C285.75 343.373 285.831 346.025 285.991 348.757C285.911 349.4 286.313 350.043 287.037 350.123C287.68 350.204 288.323 349.802 288.403 349.079C288.403 349.079 288.403 348.918 288.403 348.757Z" fill="#227B3D"/>
<path d="M293.95 348.838C293.468 346.266 293.468 343.614 293.95 340.963C294.111 340.32 293.709 339.677 293.066 339.436C292.423 339.275 291.78 339.677 291.539 340.32C290.976 343.373 290.976 346.427 291.539 349.48C291.699 350.123 292.423 350.525 293.066 350.364C293.709 350.204 294.111 349.561 293.95 348.838Z" fill="#227B3D"/>
<path d="M299.739 348.838C299.015 346.507 298.854 344.016 299.256 341.605C299.417 340.963 299.015 340.32 298.372 340.079C297.729 339.918 297.086 340.32 296.844 340.963C296.362 343.775 296.523 346.748 297.327 349.48C297.488 350.123 298.211 350.525 298.854 350.364C299.497 350.204 299.98 349.48 299.739 348.838Z" fill="#227B3D"/>
<path d="M305.607 349.722C304.803 347.391 304.321 344.981 304.24 342.49C304.321 341.847 303.919 341.204 303.195 341.123C302.552 341.043 301.909 341.445 301.829 342.168C301.829 342.329 301.829 342.409 301.829 342.57C301.909 345.222 302.391 347.873 303.276 350.445C303.437 351.088 304.16 351.49 304.803 351.329C305.446 351.168 305.768 350.365 305.607 349.722Z" fill="#227B3D"/>
<path d="M310.029 350.284L309.787 342.329C309.868 341.686 309.466 341.043 308.742 340.963C308.099 340.882 307.456 341.284 307.376 342.007C307.376 342.168 307.376 342.248 307.376 342.409L307.617 350.364C307.537 351.007 307.938 351.65 308.662 351.731C309.305 351.811 309.948 351.409 310.029 350.686C310.029 350.525 310.029 350.364 310.029 350.284Z" fill="#227B3D"/>
<path d="M277.309 159.114C285.991 156.543 294.513 154.534 303.356 154.293C314.37 153.972 325.223 156.784 334.629 162.409C341.542 166.748 347.813 172.132 353.039 178.4C354.003 179.364 355.531 179.364 356.495 178.4C357.46 177.436 357.46 175.909 356.495 174.945C347.331 164.338 335.835 155.659 322.329 151.722C311.878 148.748 301.025 148.829 290.413 150.757C285.59 151.722 280.766 152.927 276.023 154.373C273.048 155.338 274.335 160.079 277.309 159.114Z" fill="#307549"/>
<path d="M462.854 88.0788C450.072 92.8198 434.556 90.8109 423.301 78.0341C416.548 70.3198 414.78 60.1145 416.709 50.2305C422.578 20.2573 466.552 12.7037 481.666 39.9448C493.564 61.5609 480.862 81.4091 462.854 88.0788Z" fill="#BBD1CE"/>
<path d="M144.18 159.356H144.903L145.305 159.436C145.627 159.436 145.225 159.436 145.144 159.436C145.627 159.597 146.109 159.597 146.591 159.757C147.074 159.918 147.476 160.079 147.878 160.239C148.199 160.32 147.395 159.998 147.797 160.159L148.119 160.32C148.36 160.4 148.601 160.561 148.842 160.641C149.244 160.882 149.646 161.123 150.048 161.364L150.289 161.525C150.691 161.847 149.968 161.284 150.209 161.445C150.45 161.606 150.531 161.766 150.772 161.927C151.174 162.248 151.495 162.57 151.817 162.972L151.978 163.213C152.219 163.534 152.058 163.293 151.897 163.132C152.058 163.373 152.219 163.534 152.38 163.775C153.023 164.9 154.55 165.302 155.756 164.659C156.962 164.016 157.284 162.489 156.64 161.284C153.907 157.186 149.325 154.614 144.34 154.454C142.974 154.454 141.929 155.579 141.848 156.945C141.848 158.231 142.893 159.275 144.18 159.356Z" fill="#32142A"/>
<path d="M143.858 165.302C143.778 165.382 143.778 165.463 143.697 165.543C143.215 166.588 142.17 169.239 142.974 170.284C143.778 171.329 145.305 171.007 146.189 170.123C147.476 168.677 147.476 166.507 146.189 165.061C145.788 164.579 145.144 164.338 144.501 164.579C144.26 164.82 144.019 165.061 143.858 165.302Z" fill="#32142A"/>
<path d="M147.074 176.472C149.084 175.186 150.691 173.257 151.576 171.007C151.737 170.525 151.415 170.123 151.013 169.963C150.531 169.882 150.129 170.123 149.968 170.525L149.888 170.606L149.807 170.686L149.646 171.007C149.566 171.248 149.405 171.489 149.244 171.731C149.084 171.972 149.003 172.213 148.842 172.373L148.601 172.695C148.682 172.534 148.521 172.775 148.521 172.775L148.441 172.936C148.119 173.338 147.717 173.739 147.315 174.061L146.993 174.302L146.833 174.463C146.913 174.382 146.833 174.463 146.752 174.463C146.511 174.623 146.35 174.784 146.109 174.945C145.707 175.186 145.466 175.668 145.707 176.07C145.948 176.472 146.431 176.713 146.833 176.472C146.993 176.472 146.993 176.391 147.074 176.472Z" fill="#32142A"/>
<path d="M150.37 178.079C151.415 177.436 152.38 176.632 153.103 175.668C153.264 175.507 153.264 175.266 153.184 175.025C153.103 174.784 152.942 174.623 152.782 174.543C152.621 174.463 152.38 174.382 152.139 174.463C151.897 174.543 151.737 174.704 151.656 174.864L151.576 175.025L151.737 174.864C151.335 175.347 150.852 175.829 150.37 176.23L150.531 176.07C150.209 176.311 149.888 176.552 149.566 176.713C149.164 176.954 149.003 177.516 149.244 177.918C149.405 178.239 149.968 178.4 150.37 178.079Z" fill="#32142A"/>
<path d="M464.462 65.6591C459.237 67.7483 454.654 70.3198 449.509 72.4091C445.329 68.3108 440.264 65.9001 436.084 61.7216C435.842 60.918 436.325 62.5251 436.084 61.7216C437.209 56.418 438.495 50.9537 439.621 45.5698C444.605 44.3644 448.625 42.8376 453.609 41.793L452.966 41.7126C457.548 45.0876 461.809 46.9358 466.311 50.3108C465.909 49.4269 466.713 51.2751 466.311 50.3108C465.507 55.293 465.266 60.6769 464.462 65.6591C464.221 66.9448 462.533 68.0698 463.899 68.3912C465.105 68.7126 466.713 67.9894 466.954 66.7037L469.286 51.918C469.527 50.8733 469.044 49.7483 468.16 49.1858L460.684 43.6412L455.94 40.1055C455.538 39.7841 455.137 39.4626 454.735 39.2216C453.529 38.418 452.001 38.9805 450.715 39.3019C446.454 40.3466 442.274 41.9537 438.013 42.9983C437.209 43.2394 436.486 43.8823 436.325 44.6858L434.315 54.5698L433.189 59.8733C433.029 60.3555 432.948 60.8376 432.948 61.3198C432.948 63.2483 435.682 64.9358 437.048 65.9805C440.425 68.6323 444.123 71.043 447.258 74.0966C447.901 74.7394 448.786 74.9805 449.67 74.7394L465.346 68.4716C466.633 68.0698 467.356 66.7841 467.035 65.418C466.633 64.2126 465.668 65.1769 464.462 65.6591Z" fill="#153A23"/>
<path d="M463.899 67.4269C464.14 67.5073 464.783 67.8287 463.899 67.4269L464.462 67.668C467.195 69.034 469.768 70.8823 472.501 72.3287C473.627 72.9715 474.833 73.534 476.038 73.9358C476.682 74.1769 481.505 74.7394 479.817 73.534C478.289 72.4894 474.993 70.6412 473.064 69.3555C470.491 67.668 467.999 65.7394 465.668 63.7305C468.642 66.3019 465.266 66.3019 463.578 67.2662C463.738 67.3465 463.819 67.4269 463.899 67.4269Z" fill="#153A23"/>
<path d="M444.927 86.5519C446.454 81.8912 448.625 77.6323 450.313 73.0519C450.796 71.8466 449.75 73.6144 448.545 73.3733C447.178 73.0519 447.017 71.4448 446.535 72.7305C444.846 77.3108 444.203 81.168 442.676 85.8287C442.274 87.0341 441.872 88.2394 443.078 88.5608C444.284 88.8823 444.123 88.4001 444.525 87.1144L444.927 86.5519Z" fill="#153A23"/>
<path d="M434.637 59.5519C433.752 59.7126 432.948 59.9537 432.064 60.3554C430.295 60.9179 428.527 61.2394 426.678 61.3197C425.392 61.4805 424.105 61.6412 422.819 61.8019C421.935 61.8822 420.407 62.284 419.523 62.4447C418.639 62.6054 417.754 62.9269 419.121 63.7304C419.523 63.8912 419.925 63.9715 420.327 63.8912C423.06 63.8912 425.793 63.8912 428.527 64.1322C431.18 64.4537 433.913 64.4537 436.646 64.1322C437.933 63.9715 434.717 62.4447 434.395 61.5608C434.074 60.6769 436.003 59.3108 434.637 59.5519Z" fill="#153A23"/>
<path d="M439.219 42.918C439.058 42.8377 438.897 43.4002 438.737 43.3198C438.737 43.3198 439.299 42.9984 439.058 42.8377C438.978 42.8377 438.897 43.4002 438.737 43.3198C438.335 43.1591 438.013 42.9984 437.611 42.7573C435.923 41.8734 434.315 40.8288 432.627 39.9448C430.939 39.0609 429.411 38.2573 427.803 37.4538C427.16 37.1323 424.748 35.8466 424.588 36.6502C424.588 37.293 424.829 37.9359 425.311 38.3377C426.597 39.543 428.044 40.7484 429.491 41.793C430.858 42.9984 432.386 44.043 433.913 45.0877C435.601 46.1323 436.003 47.0163 437.852 47.6591C439.058 48.0609 436.727 46.8555 437.048 45.6502C437.45 44.2841 440.505 43.4002 439.219 42.918Z" fill="#153A23"/>
<path d="M454.976 41.4716C455.619 40.3466 456.182 39.9448 456.423 38.7394C457.066 36.2483 458.031 33.918 459.156 31.5876C459.96 30.0608 460.684 28.4537 461.407 26.7662C461.568 26.2037 461.889 25.2394 461.407 24.7573C461.086 24.4358 460.442 24.5966 460.121 24.8376C459.478 25.3198 458.995 25.9626 458.674 26.6858C457.387 28.9358 456.021 31.1858 454.815 33.5162C454.252 34.6412 453.77 35.7662 453.127 36.8108C452.484 37.8555 451.84 38.9001 451.197 39.9448C450.554 40.9894 452.323 39.543 453.529 40.1858C454.735 40.8287 454.252 42.5966 454.976 41.4716Z" fill="#153A23"/>
<path d="M468.16 53.3645C471.295 51.7573 474.511 50.2305 477.727 48.7841L477.405 48.9448C478.772 48.543 483.676 45.8913 483.033 44.6859C482.711 44.043 478.852 45.168 477.807 45.6502C476.762 46.1323 473.466 47.0966 472.26 47.4984C470.09 48.1413 467.758 48.1413 465.748 49.1859C464.623 49.7484 466.552 49.9091 467.195 51.0341C467.839 52.1591 466.954 54.0073 468.16 53.3645Z" fill="#153A23"/>
<path d="M428.848 93.7841L428.929 90.4091L427.16 92.7394C429.331 92.418 431.582 92.0162 433.752 91.6144L433.109 91.6948C433.27 91.6948 433.35 91.6948 433.511 91.6948L432.868 91.6144C433.27 91.6948 433.029 91.5341 432.225 91.2127C432.064 91.0519 431.984 90.8912 431.903 90.7305C431.742 90.3287 431.903 90.7305 431.903 90.8109C431.984 91.1323 432.064 91.4537 432.144 91.7752L432.546 93.8644C432.948 95.1502 434.235 95.9537 435.521 95.5519C436.807 95.1502 437.531 93.8644 437.209 92.4984C436.968 91.4537 436.807 90.4091 436.566 89.3644C436.405 88.5609 435.923 87.918 435.36 87.4359C434.476 86.793 433.431 86.6323 432.386 86.8734C430.215 87.1948 428.044 87.5966 425.874 87.918C425.391 88.0787 424.909 88.3198 424.588 88.8019C424.266 89.2037 424.105 89.7662 424.025 90.3287L423.944 93.7037C423.944 94.9894 425.07 96.1144 426.356 96.1144C427.723 96.1144 428.768 95.0698 428.848 93.7841Z" fill="#153A23"/>
<path d="M468.08 90.0876C467.999 90.0876 467.999 90.0073 467.919 90.0073L468.321 90.4894C468.321 90.4091 468.24 90.409 468.24 90.3287L468.482 90.8912C468.482 90.8108 468.482 90.8108 468.401 90.7305L468.482 91.3733C468.482 91.293 468.482 91.2126 468.482 91.1323L468.401 91.7751C468.401 91.6948 468.482 91.6144 468.482 91.534L468.24 92.0966C468.24 92.0162 468.321 92.0162 468.321 91.9358L467.919 92.418C467.999 92.3376 468.08 92.2573 468.08 92.2573L467.597 92.659C467.678 92.5787 467.838 92.4983 467.919 92.4983L467.356 92.7394C467.517 92.659 467.678 92.659 467.838 92.659L467.195 92.7394C467.999 92.659 468.803 92.659 469.687 92.659C470.491 92.659 471.215 92.659 472.019 92.7394L471.376 92.659C471.617 92.7394 471.938 92.7394 472.18 92.9001L471.617 92.659C471.778 92.7394 471.938 92.8198 472.099 92.9805L471.617 92.5787C471.778 92.659 471.858 92.8198 471.938 92.9001L471.537 92.418C471.617 92.5787 471.697 92.7394 471.778 92.9001L471.537 92.3376C471.617 92.4983 471.617 92.5787 471.617 92.7394L471.537 92.0966C471.537 92.2573 471.537 92.3376 471.537 92.4983L471.617 91.8555C471.617 91.9358 471.617 92.0162 471.537 92.0966L471.778 91.534C471.778 91.6144 471.697 91.6948 471.617 91.7751C470.974 92.9805 471.295 94.4269 472.501 95.1501C473.707 95.793 475.154 95.3912 475.878 94.2662C476.842 92.659 476.521 90.5698 475.074 89.2841C473.788 88.0787 472.099 87.918 470.411 87.918H468.321C467.517 87.918 466.793 87.9983 465.989 88.159C464.864 88.4805 463.899 89.4448 463.578 90.5698C463.256 91.6948 463.578 92.9805 464.462 93.784C464.944 94.1858 465.507 94.5073 466.231 94.5073C467.517 94.5073 468.642 93.3823 468.642 92.0966C468.642 91.4537 468.401 90.8108 467.919 90.409L468.08 90.0876Z" fill="#153A23"/>
<path d="M255.523 400.909C253.754 402.356 254.397 405.409 256.327 406.454C257.935 407.418 259.784 407.016 261.472 406.855L263.803 406.614C264.688 406.614 265.572 406.454 266.456 406.293C267.903 405.891 268.868 404.686 268.868 403.239C268.868 402.516 268.868 401.713 268.868 400.989C268.868 399.623 267.742 398.579 266.456 398.579C265.09 398.579 264.044 399.704 264.044 400.989V402.597C264.044 402.757 264.044 402.918 264.044 402.998C264.044 403.32 264.044 402.918 264.125 402.757L264.929 401.713C265.331 401.552 265.411 401.552 265.25 401.552C265.09 401.552 265.893 401.472 265.491 401.552C264.366 401.632 263.16 401.793 262.035 401.873C260.99 402.034 259.864 402.114 258.819 402.195C258.739 402.195 258.658 402.195 258.497 402.195C258.899 402.275 258.98 402.275 258.819 402.195H258.658C258.417 402.195 259.06 402.516 258.739 402.275C258.739 402.275 259.221 402.677 258.98 402.436C259.221 402.757 259.301 402.838 259.221 402.677C259.141 402.597 259.221 402.597 259.301 402.838C259.382 403.079 259.382 403.079 259.382 402.998C259.382 402.918 259.382 402.918 259.382 403.4C259.382 403.079 259.301 403.722 259.301 403.722C259.221 403.963 259.14 404.123 258.98 404.284C258.819 404.445 258.819 404.525 258.899 404.364C259.864 403.4 259.864 401.873 258.899 400.909C258.015 400.025 256.488 400.025 255.523 400.909Z" fill="#153A23"/>
<path d="M290.493 405.811H295.156C295.639 405.811 296.201 405.811 296.684 405.65C297.568 405.409 298.292 404.766 298.613 403.963C298.854 402.998 298.935 401.954 298.854 400.909C298.854 400.266 298.613 399.623 298.131 399.141C297.246 398.177 295.719 398.096 294.754 399.061C294.272 399.543 293.95 400.186 294.031 400.909C294.031 401.552 294.031 402.195 294.031 402.838L294.111 402.195C294.111 402.275 294.111 402.275 294.111 402.355L294.352 401.793V401.873L294.754 401.391C294.754 401.471 294.674 401.471 294.674 401.471L295.156 401.07C295.156 401.07 295.076 401.15 294.995 401.15L295.558 400.909C295.478 400.909 295.397 400.909 295.317 400.989L295.96 400.909C295.076 400.989 294.192 400.909 293.307 400.909H290.574C289.931 400.909 289.288 401.15 288.886 401.632C288.403 402.114 288.162 402.677 288.162 403.4C288.162 404.605 289.207 405.73 290.493 405.811Z" fill="#153A23"/>
<path d="M288.805 392.873C291.217 394.641 293.629 396.731 295.96 398.739C296.442 399.222 297.246 399.222 297.729 398.739C298.211 398.257 298.211 397.454 297.729 396.972C295.236 394.802 292.664 392.713 290.091 390.704C289.529 390.382 288.725 390.543 288.403 391.106C288.082 391.748 288.242 392.472 288.805 392.873Z" fill="#227B3D"/>
<path d="M283.66 395.445C285.589 397.213 287.68 398.82 289.85 400.347C290.413 400.668 291.217 400.507 291.539 399.945C291.86 399.382 291.699 398.659 291.137 398.257C290.654 397.936 290.091 397.534 289.609 397.213C289.368 397.052 289.127 396.811 288.886 396.65L288.805 396.57L288.725 396.489L288.323 396.168C287.358 395.364 286.393 394.561 285.509 393.757C285.027 393.275 284.223 393.275 283.821 393.757C283.419 394.239 283.178 394.963 283.66 395.445Z" fill="#227B3D"/>
<path d="M427.08 98.0429L432.627 109.454C432.948 110.016 433.752 110.257 434.315 109.936C434.878 109.614 435.119 108.811 434.717 108.248L429.17 96.918C428.848 96.3555 428.044 96.1144 427.482 96.5162C426.919 96.7572 426.758 97.4804 427.08 98.0429Z" fill="#227B3D"/>
<path d="M433.19 96.0341C433.833 97.7216 434.637 99.3287 435.521 100.855C436.486 102.623 437.45 104.311 438.254 106.159C438.576 106.722 439.38 106.963 439.942 106.561C440.505 106.239 440.746 105.436 440.344 104.873C439.541 103.105 438.576 101.418 437.691 99.7305C437.29 98.9269 436.807 98.1233 436.405 97.2394C436.244 96.8376 436.003 96.4359 435.842 96.1144L435.762 95.8733C435.601 95.5519 435.842 95.9537 435.762 95.793C435.682 95.6323 435.601 95.4716 435.601 95.3109C435.44 94.668 434.717 94.2662 434.074 94.4269C433.431 94.668 433.029 95.3912 433.19 96.0341Z" fill="#227B3D"/>
<path d="M269.833 23.1501C276.264 15.5966 283.339 8.52514 290.815 2.01621C292.021 0.971564 290.252 -0.715936 289.127 0.328707C281.57 6.83764 274.576 13.9894 268.144 21.543C267.099 22.668 268.788 24.4358 269.833 23.1501Z" fill="#EFB086"/>
<path d="M274.978 25.8019C280.444 20.418 285.67 14.7127 291.378 9.65017C292.584 8.60552 290.815 6.83767 289.609 7.96267C283.901 13.1055 278.676 18.7305 273.209 24.1948C272.084 25.1591 273.852 26.9269 274.978 25.8019Z" fill="#EFB086"/>
<path d="M91.2817 275.632C87.5837 279.168 88.468 286.561 94.819 284.793C104.144 282.141 97.6327 269.605 91.2817 275.632Z" fill="white"/>
<path d="M118.615 66.2215C116.766 67.9893 117.248 71.6858 120.384 70.8018C125.127 69.5161 121.831 63.2483 118.615 66.2215Z" fill="white"/>
<path d="M276.103 95.9537C277.148 92.1769 278.515 88.4805 280.123 84.8644C280.364 84.3019 280.927 83.659 281.409 83.9001C281.891 84.1412 281.891 84.8644 281.731 85.3465C280.927 88.7215 280.123 92.1769 279.319 95.5519C282.535 95.2304 285.67 95.7126 288.644 96.9983C288.885 97.0787 289.046 97.4001 288.885 97.6412C288.885 97.7215 288.805 97.8019 288.725 97.8822C286.956 99.0072 284.866 99.5697 282.776 99.4894C282.052 99.409 281.168 99.3287 280.605 99.8912C280.284 100.293 280.123 100.695 280.042 101.177C279.319 104.15 278.274 106.963 276.827 109.614C276.666 109.855 276.344 110.016 276.023 109.855C275.862 109.775 275.782 109.614 275.782 109.454C275.219 106.802 276.344 103.829 276.264 101.016C276.264 100.695 276.184 100.373 276.023 100.132C275.782 99.8108 275.38 99.6501 274.978 99.6501C272.003 99.0072 269.029 98.1233 266.215 96.9983C265.411 96.6769 264.527 95.8733 265.089 95.2305C265.25 95.0697 265.491 94.9894 265.813 94.909C267.582 94.5876 269.431 94.5876 271.199 94.909L276.103 95.9537Z" fill="white"/>
<path d="M302.793 62.3644C299.899 65.0965 300.623 70.8822 305.607 69.5161C312.923 67.4269 307.778 57.7036 302.793 62.3644Z" fill="white"/>
<path d="M364.293 342.409C360.595 345.945 361.48 353.338 367.831 351.57C377.237 348.918 370.644 336.382 364.293 342.409Z" fill="white"/>
<path d="M378.201 308.659C376.352 310.427 376.835 314.123 379.97 313.239C384.713 311.954 381.417 305.686 378.201 308.659Z" fill="white"/>
<path d="M412.448 314.364C410.76 309.543 409.474 304.641 408.509 299.659C408.348 298.855 408.429 297.811 409.233 297.65C410.037 297.489 410.439 298.293 410.68 299.016C412.288 303.195 413.976 307.454 415.584 311.632C418.719 308.98 422.497 307.132 426.517 306.248C426.838 306.168 427.24 306.409 427.24 306.731C427.24 306.891 427.24 306.972 427.16 307.132C426.115 309.623 424.346 311.713 422.015 313.159C421.211 313.641 420.246 314.204 420.005 315.168C419.925 315.811 420.086 316.454 420.327 317.016C421.774 320.632 422.658 324.489 423.14 328.347C423.14 328.748 422.899 329.15 422.497 329.15C422.256 329.15 422.095 329.07 421.935 328.989C419.362 326.659 418.397 322.561 416.307 319.668C416.066 319.347 415.744 319.025 415.423 318.864C414.94 318.784 414.378 318.864 413.976 319.106C410.358 320.552 406.58 321.838 402.721 322.722C401.676 322.963 400.068 322.722 400.229 321.677C400.309 321.356 400.47 321.114 400.711 320.873C402.319 319.186 404.248 317.9 406.419 316.936L412.448 314.364Z" fill="white"/>
<path d="M431.582 279.65C429.733 281.418 430.215 285.114 433.35 284.231C438.093 282.864 434.797 276.677 431.582 279.65Z" fill="white"/>
<path d="M79.8294 335.25C80.151 331.634 80.7941 328.098 81.598 324.643C81.7588 324.08 82.0804 323.437 82.6431 323.598C83.2059 323.759 83.2059 324.402 83.2059 324.884C83.0451 328.098 82.8843 331.312 82.6431 334.446C85.4568 333.643 88.4313 333.562 91.3255 334.205C91.5666 334.286 91.7274 334.446 91.7274 334.687C91.7274 334.768 91.647 334.929 91.5666 335.009C90.2 336.295 88.3509 337.179 86.5019 337.42C85.7784 337.42 85.1353 337.661 84.6529 338.143C84.4117 338.545 84.3313 338.946 84.3313 339.429C84.1706 342.161 83.6882 344.893 82.8039 347.464C82.7235 347.705 82.4019 347.866 82.1608 347.786C82 347.705 81.9196 347.625 81.8392 347.464C80.8745 345.214 81.4372 342.321 80.9549 339.83C80.9549 339.509 80.7941 339.268 80.6333 339.027C80.3117 338.786 79.9902 338.705 79.5882 338.705C76.7745 338.625 74.0411 338.304 71.2274 337.821C70.5039 337.661 69.5392 337.018 69.9411 336.455C70.1019 336.295 70.2627 336.134 70.5039 336.054C72.0313 335.491 73.7196 335.17 75.3274 335.25H79.8294Z" fill="white"/>
</svg>
